# xmcd
#
# Track frame offsets:
#	150
#	27833
#	50065
#	83502
#	112470
#	137070
#	171211
#	204770
#	220767
#	246364
#	298234
#
# Disc length: 4285 seconds
#
# Revision: 1
# Processed by: cddbd v1.5.1PL0 Copyright (c) Steve Scherf et al.
# Submitted via: audiograbber 1.83.01
#
DISCID=a510bb0b
DTITLE=Rebel Blues - Rebel Blues
DYEAR=2005
DGENRE=Blues
TTITLE0=Shake
TTITLE1=Mark's Blues
TTITLE2=Fatz Boogie
TTITLE3=Anchorage City Blues
TTITLE4=Green Eyes
TTITLE5=Quicksand
TTITLE6=Funky Furnace
TTITLE7=Funky Furnace Reprise
TTITLE8=Just a Pack
TTITLE9=So Good
TTITLE10=Do Dat
EXTD=
EXTT0=
EXTT1=
EXTT2=
EXTT3=
EXTT4=
EXTT5=
EXTT6=
EXTT7=
EXTT8=
EXTT9=
EXTT10=
PLAYORDER=
